<mxfile host="app.diagrams.net" modified="2023-04-25T06:56:44.607Z" agent="Mozilla/5.0 (Macintosh; Intel Mac OS X 10_15_7) AppleWebKit/537.36 (KHTML, like Gecko) Chrome/112.0.0.0 Safari/537.36" etag="Pjdf0lh-KnuV83SYmUw3" version="21.1.8" type="github">
  <diagram id="R2lEEEUBdFMjLlhIrx00" name="Page-1">
    <mxGraphModel dx="3720" dy="2969" grid="1" gridSize="10" guides="1" tooltips="1" connect="1" arrows="1" fold="1" page="0" pageScale="1" pageWidth="850" pageHeight="1100" math="0" shadow="0" extFonts="Permanent Marker^https://fonts.googleapis.com/css?family=Permanent+Marker">
      <root>
        <mxCell id="0" />
        <mxCell id="1" parent="0" />
        <mxCell id="V_KaOfOmdFqGTKFBVD7W-199" value="" style="rounded=1;whiteSpace=wrap;html=1;dashed=1;dashPattern=1 1;" vertex="1" parent="1">
          <mxGeometry x="290" y="-1260" width="620" height="1780" as="geometry" />
        </mxCell>
        <mxCell id="V_KaOfOmdFqGTKFBVD7W-198" value="" style="rounded=1;whiteSpace=wrap;html=1;dashed=1;dashPattern=1 1;" vertex="1" parent="1">
          <mxGeometry x="-978" y="-1260" width="1230" height="1780" as="geometry" />
        </mxCell>
        <mxCell id="V_KaOfOmdFqGTKFBVD7W-197" value="" style="rounded=1;whiteSpace=wrap;html=1;dashed=1;dashPattern=1 2;" vertex="1" parent="1">
          <mxGeometry x="-1490" y="-1250" width="420" height="1760" as="geometry" />
        </mxCell>
        <mxCell id="V_KaOfOmdFqGTKFBVD7W-49" value="用户" style="ellipse;whiteSpace=wrap;html=1;" vertex="1" parent="1">
          <mxGeometry x="-1390" y="-470" width="120" height="80" as="geometry" />
        </mxCell>
        <mxCell id="V_KaOfOmdFqGTKFBVD7W-51" value="" style="rounded=0;whiteSpace=wrap;html=1;" vertex="1" parent="1">
          <mxGeometry x="-900" y="-550" width="400" height="800" as="geometry" />
        </mxCell>
        <mxCell id="V_KaOfOmdFqGTKFBVD7W-52" value="订单" style="text;strokeColor=none;fillColor=none;html=1;fontSize=24;fontStyle=1;verticalAlign=middle;align=center;" vertex="1" parent="1">
          <mxGeometry x="-760" y="-540" width="100" height="40" as="geometry" />
        </mxCell>
        <mxCell id="V_KaOfOmdFqGTKFBVD7W-53" value="" style="rounded=1;whiteSpace=wrap;html=1;" vertex="1" parent="1">
          <mxGeometry x="-740" y="-1120" width="310" height="80" as="geometry" />
        </mxCell>
        <mxCell id="V_KaOfOmdFqGTKFBVD7W-54" value="护理预约" style="text;strokeColor=none;fillColor=none;html=1;fontSize=24;fontStyle=1;verticalAlign=middle;align=center;" vertex="1" parent="1">
          <mxGeometry x="-640" y="-1120" width="100" height="40" as="geometry" />
        </mxCell>
        <mxCell id="V_KaOfOmdFqGTKFBVD7W-58" value="" style="rounded=1;whiteSpace=wrap;html=1;" vertex="1" parent="1">
          <mxGeometry x="-68.82" y="-1220" width="170" height="210" as="geometry" />
        </mxCell>
        <mxCell id="V_KaOfOmdFqGTKFBVD7W-59" value="系统配置" style="text;strokeColor=none;fillColor=none;html=1;fontSize=24;fontStyle=1;verticalAlign=middle;align=center;" vertex="1" parent="1">
          <mxGeometry x="-28.819999999999993" y="-1210" width="100" height="40" as="geometry" />
        </mxCell>
        <mxCell id="V_KaOfOmdFqGTKFBVD7W-60" value="时间配置" style="rounded=0;whiteSpace=wrap;html=1;dashed=1;" vertex="1" parent="1">
          <mxGeometry x="-38.81999999999999" y="-1160" width="100" height="40" as="geometry" />
        </mxCell>
        <mxCell id="V_KaOfOmdFqGTKFBVD7W-61" value="服务距离" style="rounded=0;whiteSpace=wrap;html=1;dashed=1;" vertex="1" parent="1">
          <mxGeometry x="-38.81999999999999" y="-1110" width="100" height="40" as="geometry" />
        </mxCell>
        <mxCell id="V_KaOfOmdFqGTKFBVD7W-62" value="交通费配置" style="rounded=0;whiteSpace=wrap;html=1;dashed=1;" vertex="1" parent="1">
          <mxGeometry x="-38.81999999999999" y="-1060" width="100" height="40" as="geometry" />
        </mxCell>
        <mxCell id="V_KaOfOmdFqGTKFBVD7W-64" value="创建护理订单（待缴费）" style="rounded=0;whiteSpace=wrap;html=1;dashed=1;" vertex="1" parent="1">
          <mxGeometry x="-865" y="-470" width="150" height="40" as="geometry" />
        </mxCell>
        <mxCell id="V_KaOfOmdFqGTKFBVD7W-71" value="" style="rounded=1;whiteSpace=wrap;html=1;" vertex="1" parent="1">
          <mxGeometry x="350" y="-830" width="290" height="530" as="geometry" />
        </mxCell>
        <mxCell id="V_KaOfOmdFqGTKFBVD7W-72" value="全付通" style="text;strokeColor=none;fillColor=none;html=1;fontSize=24;fontStyle=1;verticalAlign=middle;align=center;" vertex="1" parent="1">
          <mxGeometry x="445" y="-830" width="100" height="40" as="geometry" />
        </mxCell>
        <mxCell id="V_KaOfOmdFqGTKFBVD7W-88" value="" style="edgeStyle=orthogonalEdgeStyle;rounded=0;orthogonalLoop=1;jettySize=auto;html=1;" edge="1" parent="1" target="V_KaOfOmdFqGTKFBVD7W-76">
          <mxGeometry relative="1" as="geometry">
            <mxPoint x="25" y="-550" as="sourcePoint" />
          </mxGeometry>
        </mxCell>
        <mxCell id="V_KaOfOmdFqGTKFBVD7W-83" value="" style="rounded=1;whiteSpace=wrap;html=1;" vertex="1" parent="1">
          <mxGeometry x="350" y="-160" width="290" height="240" as="geometry" />
        </mxCell>
        <mxCell id="V_KaOfOmdFqGTKFBVD7W-84" value="his系统" style="text;strokeColor=none;fillColor=none;html=1;fontSize=24;fontStyle=1;verticalAlign=middle;align=center;" vertex="1" parent="1">
          <mxGeometry x="445" y="-160" width="100" height="40" as="geometry" />
        </mxCell>
        <mxCell id="V_KaOfOmdFqGTKFBVD7W-106" style="edgeStyle=orthogonalEdgeStyle;rounded=0;orthogonalLoop=1;jettySize=auto;html=1;exitX=0.5;exitY=1;exitDx=0;exitDy=0;" edge="1" parent="1" source="V_KaOfOmdFqGTKFBVD7W-51" target="V_KaOfOmdFqGTKFBVD7W-51">
          <mxGeometry relative="1" as="geometry" />
        </mxCell>
        <mxCell id="V_KaOfOmdFqGTKFBVD7W-111" value="护士" style="ellipse;whiteSpace=wrap;html=1;" vertex="1" parent="1">
          <mxGeometry x="-1380" y="-310" width="120" height="80" as="geometry" />
        </mxCell>
        <mxCell id="V_KaOfOmdFqGTKFBVD7W-112" value="创建耗材订单（待缴费）" style="rounded=0;whiteSpace=wrap;html=1;dashed=1;" vertex="1" parent="1">
          <mxGeometry x="-680" y="-470" width="150" height="40" as="geometry" />
        </mxCell>
        <mxCell id="V_KaOfOmdFqGTKFBVD7W-118" value="" style="rounded=1;whiteSpace=wrap;html=1;" vertex="1" parent="1">
          <mxGeometry x="-98.82" y="-930" width="230" height="60" as="geometry" />
        </mxCell>
        <mxCell id="V_KaOfOmdFqGTKFBVD7W-119" value="定时任务" style="text;strokeColor=none;fillColor=none;html=1;fontSize=24;fontStyle=1;verticalAlign=middle;align=center;" vertex="1" parent="1">
          <mxGeometry x="-32.64" y="-930" width="103.82" height="40" as="geometry" />
        </mxCell>
        <mxCell id="V_KaOfOmdFqGTKFBVD7W-120" value="" style="rounded=1;whiteSpace=wrap;html=1;" vertex="1" parent="1">
          <mxGeometry x="-445" y="-880" width="310" height="180" as="geometry" />
        </mxCell>
        <mxCell id="V_KaOfOmdFqGTKFBVD7W-122" value="延迟队列" style="text;strokeColor=none;fillColor=none;html=1;fontSize=24;fontStyle=1;verticalAlign=middle;align=center;" vertex="1" parent="1">
          <mxGeometry x="-340" y="-880" width="100" height="40" as="geometry" />
        </mxCell>
        <mxCell id="V_KaOfOmdFqGTKFBVD7W-123" value="" style="curved=1;endArrow=classic;html=1;rounded=0;exitX=1;exitY=0.5;exitDx=0;exitDy=0;entryX=0;entryY=0.5;entryDx=0;entryDy=0;" edge="1" parent="1" source="V_KaOfOmdFqGTKFBVD7W-49" target="V_KaOfOmdFqGTKFBVD7W-53">
          <mxGeometry width="50" height="50" relative="1" as="geometry">
            <mxPoint x="-1000" y="-420" as="sourcePoint" />
            <mxPoint x="-710" y="-1000" as="targetPoint" />
            <Array as="points">
              <mxPoint x="-1000" y="-470" />
              <mxPoint x="-990" y="-910" />
            </Array>
          </mxGeometry>
        </mxCell>
        <mxCell id="V_KaOfOmdFqGTKFBVD7W-124" value="预约护理" style="edgeLabel;html=1;align=center;verticalAlign=middle;resizable=0;points=[];" vertex="1" connectable="0" parent="V_KaOfOmdFqGTKFBVD7W-123">
          <mxGeometry x="-0.0121" y="-3" relative="1" as="geometry">
            <mxPoint x="-1" as="offset" />
          </mxGeometry>
        </mxCell>
        <mxCell id="V_KaOfOmdFqGTKFBVD7W-127" value="" style="curved=1;endArrow=classic;html=1;rounded=0;exitX=1;exitY=0.5;exitDx=0;exitDy=0;entryX=0;entryY=0.5;entryDx=0;entryDy=0;" edge="1" parent="1" source="V_KaOfOmdFqGTKFBVD7W-53" target="V_KaOfOmdFqGTKFBVD7W-58">
          <mxGeometry width="50" height="50" relative="1" as="geometry">
            <mxPoint x="-330" y="-1000" as="sourcePoint" />
            <mxPoint x="-280" y="-1050" as="targetPoint" />
            <Array as="points">
              <mxPoint x="-320" y="-1080" />
              <mxPoint x="-270" y="-1110" />
            </Array>
          </mxGeometry>
        </mxCell>
        <mxCell id="V_KaOfOmdFqGTKFBVD7W-128" value="校验信息" style="edgeLabel;html=1;align=center;verticalAlign=middle;resizable=0;points=[];" vertex="1" connectable="0" parent="V_KaOfOmdFqGTKFBVD7W-127">
          <mxGeometry x="-0.1291" y="-9" relative="1" as="geometry">
            <mxPoint as="offset" />
          </mxGeometry>
        </mxCell>
        <mxCell id="V_KaOfOmdFqGTKFBVD7W-130" value="" style="curved=1;endArrow=classic;html=1;rounded=0;exitX=1;exitY=0.5;exitDx=0;exitDy=0;entryX=0.25;entryY=1;entryDx=0;entryDy=0;" edge="1" parent="1" source="V_KaOfOmdFqGTKFBVD7W-111" target="V_KaOfOmdFqGTKFBVD7W-112">
          <mxGeometry width="50" height="50" relative="1" as="geometry">
            <mxPoint x="-1010" y="-340" as="sourcePoint" />
            <mxPoint x="-960" y="-390" as="targetPoint" />
            <Array as="points">
              <mxPoint x="-960" y="-340" />
              <mxPoint x="-1010" y="-390" />
            </Array>
          </mxGeometry>
        </mxCell>
        <mxCell id="V_KaOfOmdFqGTKFBVD7W-131" value="护理服务完成，创建耗材订单" style="edgeLabel;html=1;align=center;verticalAlign=middle;resizable=0;points=[];" vertex="1" connectable="0" parent="V_KaOfOmdFqGTKFBVD7W-130">
          <mxGeometry x="-0.5092" y="-18" relative="1" as="geometry">
            <mxPoint x="1" as="offset" />
          </mxGeometry>
        </mxCell>
        <mxCell id="V_KaOfOmdFqGTKFBVD7W-132" value="" style="curved=1;endArrow=classic;html=1;rounded=0;entryX=0.5;entryY=0;entryDx=0;entryDy=0;" edge="1" parent="1" source="V_KaOfOmdFqGTKFBVD7W-53" target="V_KaOfOmdFqGTKFBVD7W-64">
          <mxGeometry width="50" height="50" relative="1" as="geometry">
            <mxPoint x="-730" y="-750" as="sourcePoint" />
            <mxPoint x="-680" y="-800" as="targetPoint" />
            <Array as="points">
              <mxPoint x="-620" y="-850" />
              <mxPoint x="-680" y="-780" />
            </Array>
          </mxGeometry>
        </mxCell>
        <mxCell id="V_KaOfOmdFqGTKFBVD7W-133" value="预约成功后创建网约护理订单" style="edgeLabel;html=1;align=center;verticalAlign=middle;resizable=0;points=[];" vertex="1" connectable="0" parent="V_KaOfOmdFqGTKFBVD7W-132">
          <mxGeometry x="-0.325" y="6" relative="1" as="geometry">
            <mxPoint x="-1" as="offset" />
          </mxGeometry>
        </mxCell>
        <mxCell id="V_KaOfOmdFqGTKFBVD7W-194" value="" style="edgeStyle=orthogonalEdgeStyle;rounded=0;orthogonalLoop=1;jettySize=auto;html=1;" edge="1" parent="1" source="V_KaOfOmdFqGTKFBVD7W-134" target="V_KaOfOmdFqGTKFBVD7W-144">
          <mxGeometry relative="1" as="geometry" />
        </mxCell>
        <mxCell id="V_KaOfOmdFqGTKFBVD7W-134" value="下单" style="rounded=0;whiteSpace=wrap;html=1;dashed=1;" vertex="1" parent="1">
          <mxGeometry x="-800" y="-350" width="150" height="40" as="geometry" />
        </mxCell>
        <mxCell id="V_KaOfOmdFqGTKFBVD7W-135" value="" style="curved=1;endArrow=classic;html=1;rounded=0;exitX=1;exitY=0.5;exitDx=0;exitDy=0;entryX=0;entryY=0.5;entryDx=0;entryDy=0;" edge="1" parent="1" source="V_KaOfOmdFqGTKFBVD7W-49" target="V_KaOfOmdFqGTKFBVD7W-134">
          <mxGeometry width="50" height="50" relative="1" as="geometry">
            <mxPoint x="-1080" y="-410" as="sourcePoint" />
            <mxPoint x="-1030" y="-460" as="targetPoint" />
            <Array as="points">
              <mxPoint x="-1020" y="-380" />
            </Array>
          </mxGeometry>
        </mxCell>
        <mxCell id="V_KaOfOmdFqGTKFBVD7W-136" value="用户下单支付" style="edgeLabel;html=1;align=center;verticalAlign=middle;resizable=0;points=[];" vertex="1" connectable="0" parent="V_KaOfOmdFqGTKFBVD7W-135">
          <mxGeometry x="-0.1495" y="3" relative="1" as="geometry">
            <mxPoint as="offset" />
          </mxGeometry>
        </mxCell>
        <mxCell id="V_KaOfOmdFqGTKFBVD7W-137" value="&lt;font style=&quot;font-size: 37px;&quot;&gt;下单&lt;/font&gt;" style="rounded=0;whiteSpace=wrap;html=1;dashed=1;" vertex="1" parent="1">
          <mxGeometry x="400" y="-570" width="180" height="90" as="geometry" />
        </mxCell>
        <mxCell id="V_KaOfOmdFqGTKFBVD7W-138" value="" style="curved=1;endArrow=classic;html=1;rounded=0;entryX=0;entryY=0.5;entryDx=0;entryDy=0;exitX=1;exitY=0.5;exitDx=0;exitDy=0;" edge="1" parent="1" source="V_KaOfOmdFqGTKFBVD7W-134" target="V_KaOfOmdFqGTKFBVD7W-137">
          <mxGeometry width="50" height="50" relative="1" as="geometry">
            <mxPoint x="-20" y="-430" as="sourcePoint" />
            <mxPoint x="30" y="-480" as="targetPoint" />
            <Array as="points">
              <mxPoint x="-340" y="-460" />
              <mxPoint x="-80" y="-540" />
              <mxPoint x="50" y="-580" />
            </Array>
          </mxGeometry>
        </mxCell>
        <mxCell id="V_KaOfOmdFqGTKFBVD7W-139" value="调用全付通下单，创建全付通订单信息" style="edgeLabel;html=1;align=center;verticalAlign=middle;resizable=0;points=[];" vertex="1" connectable="0" parent="V_KaOfOmdFqGTKFBVD7W-138">
          <mxGeometry x="0.2549" y="-4" relative="1" as="geometry">
            <mxPoint y="1" as="offset" />
          </mxGeometry>
        </mxCell>
        <mxCell id="V_KaOfOmdFqGTKFBVD7W-140" value="" style="rounded=1;whiteSpace=wrap;html=1;" vertex="1" parent="1">
          <mxGeometry x="-320" y="-10" width="300" height="70" as="geometry" />
        </mxCell>
        <mxCell id="V_KaOfOmdFqGTKFBVD7W-141" value="支付流水记录" style="text;strokeColor=none;fillColor=none;html=1;fontSize=24;fontStyle=1;verticalAlign=middle;align=center;" vertex="1" parent="1">
          <mxGeometry x="-225" y="-10" width="100" height="40" as="geometry" />
        </mxCell>
        <mxCell id="V_KaOfOmdFqGTKFBVD7W-142" value="" style="curved=1;endArrow=classic;html=1;rounded=0;exitX=1;exitY=0.5;exitDx=0;exitDy=0;entryX=0.5;entryY=0;entryDx=0;entryDy=0;" edge="1" parent="1" source="V_KaOfOmdFqGTKFBVD7W-134" target="V_KaOfOmdFqGTKFBVD7W-141">
          <mxGeometry width="50" height="50" relative="1" as="geometry">
            <mxPoint x="-280" y="-70" as="sourcePoint" />
            <mxPoint x="-230" y="-120" as="targetPoint" />
            <Array as="points">
              <mxPoint x="-430" y="-290" />
              <mxPoint x="-230" y="-70" />
            </Array>
          </mxGeometry>
        </mxCell>
        <mxCell id="V_KaOfOmdFqGTKFBVD7W-143" value="下单成功，创建支付流水信息" style="edgeLabel;html=1;align=center;verticalAlign=middle;resizable=0;points=[];" vertex="1" connectable="0" parent="V_KaOfOmdFqGTKFBVD7W-142">
          <mxGeometry x="0.136" y="-3" relative="1" as="geometry">
            <mxPoint y="-1" as="offset" />
          </mxGeometry>
        </mxCell>
        <mxCell id="V_KaOfOmdFqGTKFBVD7W-144" value="缴费" style="rounded=0;whiteSpace=wrap;html=1;dashed=1;" vertex="1" parent="1">
          <mxGeometry x="-800" y="-260" width="150" height="40" as="geometry" />
        </mxCell>
        <mxCell id="V_KaOfOmdFqGTKFBVD7W-145" value="" style="curved=1;endArrow=classic;html=1;rounded=0;exitX=0;exitY=0.5;exitDx=0;exitDy=0;entryX=1;entryY=0.5;entryDx=0;entryDy=0;" edge="1" parent="1" source="V_KaOfOmdFqGTKFBVD7W-71" target="V_KaOfOmdFqGTKFBVD7W-144">
          <mxGeometry width="50" height="50" relative="1" as="geometry">
            <mxPoint x="-160" y="-310" as="sourcePoint" />
            <mxPoint x="-110" y="-360" as="targetPoint" />
            <Array as="points">
              <mxPoint x="-160" y="-360" />
            </Array>
          </mxGeometry>
        </mxCell>
        <mxCell id="V_KaOfOmdFqGTKFBVD7W-146" value="callback" style="edgeLabel;html=1;align=center;verticalAlign=middle;resizable=0;points=[];" vertex="1" connectable="0" parent="V_KaOfOmdFqGTKFBVD7W-145">
          <mxGeometry x="-0.0312" y="-4" relative="1" as="geometry">
            <mxPoint x="1" as="offset" />
          </mxGeometry>
        </mxCell>
        <mxCell id="V_KaOfOmdFqGTKFBVD7W-147" value="" style="curved=1;endArrow=classic;html=1;rounded=0;exitX=1;exitY=0.5;exitDx=0;exitDy=0;entryX=0.5;entryY=0;entryDx=0;entryDy=0;" edge="1" parent="1" source="V_KaOfOmdFqGTKFBVD7W-144" target="V_KaOfOmdFqGTKFBVD7W-141">
          <mxGeometry width="50" height="50" relative="1" as="geometry">
            <mxPoint x="-420" y="-100" as="sourcePoint" />
            <mxPoint x="-370" y="-150" as="targetPoint" />
            <Array as="points">
              <mxPoint x="-350" y="-70" />
              <mxPoint x="-270" y="-40" />
            </Array>
          </mxGeometry>
        </mxCell>
        <mxCell id="V_KaOfOmdFqGTKFBVD7W-148" value="更新流水记录信息" style="edgeLabel;html=1;align=center;verticalAlign=middle;resizable=0;points=[];" vertex="1" connectable="0" parent="V_KaOfOmdFqGTKFBVD7W-147">
          <mxGeometry x="0.0896" y="4" relative="1" as="geometry">
            <mxPoint as="offset" />
          </mxGeometry>
        </mxCell>
        <mxCell id="V_KaOfOmdFqGTKFBVD7W-149" value="" style="curved=1;endArrow=classic;html=1;rounded=0;exitX=1;exitY=0.5;exitDx=0;exitDy=0;entryX=0;entryY=0.5;entryDx=0;entryDy=0;" edge="1" parent="1" source="V_KaOfOmdFqGTKFBVD7W-144" target="V_KaOfOmdFqGTKFBVD7W-83">
          <mxGeometry width="50" height="50" relative="1" as="geometry">
            <mxPoint x="-40" y="-170" as="sourcePoint" />
            <mxPoint x="10" y="-220" as="targetPoint" />
            <Array as="points">
              <mxPoint x="10" y="-170" />
              <mxPoint x="40" y="-100" />
            </Array>
          </mxGeometry>
        </mxCell>
        <mxCell id="V_KaOfOmdFqGTKFBVD7W-150" value="his交互，提交订单信息到his系统中" style="edgeLabel;html=1;align=center;verticalAlign=middle;resizable=0;points=[];" vertex="1" connectable="0" parent="V_KaOfOmdFqGTKFBVD7W-149">
          <mxGeometry x="0.1799" y="-21" relative="1" as="geometry">
            <mxPoint x="1" y="1" as="offset" />
          </mxGeometry>
        </mxCell>
        <mxCell id="V_KaOfOmdFqGTKFBVD7W-154" value="" style="curved=1;endArrow=classic;html=1;rounded=0;entryX=0.568;entryY=1;entryDx=0;entryDy=0;entryPerimeter=0;" edge="1" parent="1" source="V_KaOfOmdFqGTKFBVD7W-64" target="V_KaOfOmdFqGTKFBVD7W-120">
          <mxGeometry width="50" height="50" relative="1" as="geometry">
            <mxPoint x="-430" y="-580" as="sourcePoint" />
            <mxPoint x="-380" y="-630" as="targetPoint" />
            <Array as="points">
              <mxPoint x="-540" y="-560" />
              <mxPoint x="-330" y="-590" />
            </Array>
          </mxGeometry>
        </mxCell>
        <mxCell id="V_KaOfOmdFqGTKFBVD7W-155" value="提交订单到延迟队列中，订单支付时间在有效期范围内" style="edgeLabel;html=1;align=center;verticalAlign=middle;resizable=0;points=[];" vertex="1" connectable="0" parent="V_KaOfOmdFqGTKFBVD7W-154">
          <mxGeometry x="0.0418" y="-6" relative="1" as="geometry">
            <mxPoint as="offset" />
          </mxGeometry>
        </mxCell>
        <mxCell id="V_KaOfOmdFqGTKFBVD7W-158" value="&lt;font style=&quot;font-size: 37px;&quot;&gt;退款&lt;/font&gt;" style="rounded=0;whiteSpace=wrap;html=1;dashed=1;" vertex="1" parent="1">
          <mxGeometry x="400" y="-420" width="180" height="90" as="geometry" />
        </mxCell>
        <mxCell id="V_KaOfOmdFqGTKFBVD7W-159" value="订单取消申请" style="rounded=0;whiteSpace=wrap;html=1;dashed=1;" vertex="1" parent="1">
          <mxGeometry x="-800" y="-100" width="150" height="40" as="geometry" />
        </mxCell>
        <mxCell id="V_KaOfOmdFqGTKFBVD7W-160" value="" style="curved=1;endArrow=classic;html=1;rounded=0;exitX=0.975;exitY=0.725;exitDx=0;exitDy=0;exitPerimeter=0;entryX=0;entryY=0.5;entryDx=0;entryDy=0;" edge="1" parent="1" source="V_KaOfOmdFqGTKFBVD7W-111" target="V_KaOfOmdFqGTKFBVD7W-159">
          <mxGeometry width="50" height="50" relative="1" as="geometry">
            <mxPoint x="-1080" y="-140" as="sourcePoint" />
            <mxPoint x="-1030" y="-190" as="targetPoint" />
            <Array as="points">
              <mxPoint x="-1090" y="-130" />
              <mxPoint x="-980" y="-80" />
            </Array>
          </mxGeometry>
        </mxCell>
        <mxCell id="V_KaOfOmdFqGTKFBVD7W-161" value="取消订单" style="edgeLabel;html=1;align=center;verticalAlign=middle;resizable=0;points=[];" vertex="1" connectable="0" parent="V_KaOfOmdFqGTKFBVD7W-160">
          <mxGeometry x="-0.2769" y="1" relative="1" as="geometry">
            <mxPoint x="-1" as="offset" />
          </mxGeometry>
        </mxCell>
        <mxCell id="V_KaOfOmdFqGTKFBVD7W-162" value="" style="curved=1;endArrow=classic;html=1;rounded=0;exitX=1;exitY=0.5;exitDx=0;exitDy=0;entryX=0;entryY=0.5;entryDx=0;entryDy=0;" edge="1" parent="1" source="V_KaOfOmdFqGTKFBVD7W-49" target="V_KaOfOmdFqGTKFBVD7W-159">
          <mxGeometry width="50" height="50" relative="1" as="geometry">
            <mxPoint x="-1050" y="-180" as="sourcePoint" />
            <mxPoint x="-1000" y="-230" as="targetPoint" />
            <Array as="points">
              <mxPoint x="-1030" y="-240" />
              <mxPoint x="-1010" y="-180" />
            </Array>
          </mxGeometry>
        </mxCell>
        <mxCell id="V_KaOfOmdFqGTKFBVD7W-163" value="取消订单" style="edgeLabel;html=1;align=center;verticalAlign=middle;resizable=0;points=[];" vertex="1" connectable="0" parent="V_KaOfOmdFqGTKFBVD7W-162">
          <mxGeometry x="0.1085" relative="1" as="geometry">
            <mxPoint as="offset" />
          </mxGeometry>
        </mxCell>
        <mxCell id="V_KaOfOmdFqGTKFBVD7W-164" value="管理员" style="ellipse;whiteSpace=wrap;html=1;" vertex="1" parent="1">
          <mxGeometry x="-1370" width="120" height="80" as="geometry" />
        </mxCell>
        <mxCell id="V_KaOfOmdFqGTKFBVD7W-165" value="退款" style="rounded=0;whiteSpace=wrap;html=1;dashed=1;" vertex="1" parent="1">
          <mxGeometry x="-800" y="80" width="150" height="40" as="geometry" />
        </mxCell>
        <mxCell id="V_KaOfOmdFqGTKFBVD7W-168" style="edgeStyle=orthogonalEdgeStyle;rounded=0;orthogonalLoop=1;jettySize=auto;html=1;entryX=0.5;entryY=0;entryDx=0;entryDy=0;" edge="1" parent="1" source="V_KaOfOmdFqGTKFBVD7W-166" target="V_KaOfOmdFqGTKFBVD7W-165">
          <mxGeometry relative="1" as="geometry" />
        </mxCell>
        <mxCell id="V_KaOfOmdFqGTKFBVD7W-196" value="是" style="edgeLabel;html=1;align=center;verticalAlign=middle;resizable=0;points=[];" vertex="1" connectable="0" parent="V_KaOfOmdFqGTKFBVD7W-168">
          <mxGeometry x="-0.0037" y="-2" relative="1" as="geometry">
            <mxPoint y="1" as="offset" />
          </mxGeometry>
        </mxCell>
        <mxCell id="V_KaOfOmdFqGTKFBVD7W-166" value="审核通过" style="rhombus;whiteSpace=wrap;html=1;" vertex="1" parent="1">
          <mxGeometry x="-765" y="-15" width="80" height="35" as="geometry" />
        </mxCell>
        <mxCell id="V_KaOfOmdFqGTKFBVD7W-167" value="" style="curved=1;endArrow=classic;html=1;rounded=0;exitX=1;exitY=0.5;exitDx=0;exitDy=0;entryX=0;entryY=0.5;entryDx=0;entryDy=0;" edge="1" parent="1" source="V_KaOfOmdFqGTKFBVD7W-164" target="V_KaOfOmdFqGTKFBVD7W-166">
          <mxGeometry width="50" height="50" relative="1" as="geometry">
            <mxPoint x="-1090" y="50" as="sourcePoint" />
            <mxPoint x="-1040" as="targetPoint" />
            <Array as="points">
              <mxPoint x="-1090" y="30" />
              <mxPoint x="-1040" />
            </Array>
          </mxGeometry>
        </mxCell>
        <mxCell id="V_KaOfOmdFqGTKFBVD7W-195" value="审核" style="edgeLabel;html=1;align=center;verticalAlign=middle;resizable=0;points=[];" vertex="1" connectable="0" parent="V_KaOfOmdFqGTKFBVD7W-167">
          <mxGeometry x="-0.0328" y="-12" relative="1" as="geometry">
            <mxPoint x="1" as="offset" />
          </mxGeometry>
        </mxCell>
        <mxCell id="V_KaOfOmdFqGTKFBVD7W-169" value="" style="curved=1;endArrow=classic;html=1;rounded=0;entryX=0;entryY=0.5;entryDx=0;entryDy=0;" edge="1" parent="1" target="V_KaOfOmdFqGTKFBVD7W-165">
          <mxGeometry width="50" height="50" relative="1" as="geometry">
            <mxPoint x="-1240" y="40" as="sourcePoint" />
            <mxPoint x="-940" y="90" as="targetPoint" />
            <Array as="points">
              <mxPoint x="-1040" y="60" />
            </Array>
          </mxGeometry>
        </mxCell>
        <mxCell id="V_KaOfOmdFqGTKFBVD7W-170" value="直接退款" style="edgeLabel;html=1;align=center;verticalAlign=middle;resizable=0;points=[];" vertex="1" connectable="0" parent="V_KaOfOmdFqGTKFBVD7W-169">
          <mxGeometry x="0.1223" y="-4" relative="1" as="geometry">
            <mxPoint x="-1" as="offset" />
          </mxGeometry>
        </mxCell>
        <mxCell id="V_KaOfOmdFqGTKFBVD7W-171" value="" style="curved=1;endArrow=classic;html=1;rounded=0;entryX=0;entryY=0.5;entryDx=0;entryDy=0;exitX=1;exitY=0.5;exitDx=0;exitDy=0;" edge="1" parent="1" source="V_KaOfOmdFqGTKFBVD7W-165" target="V_KaOfOmdFqGTKFBVD7W-158">
          <mxGeometry width="50" height="50" relative="1" as="geometry">
            <mxPoint x="120" y="-250" as="sourcePoint" />
            <mxPoint x="170" y="-300" as="targetPoint" />
            <Array as="points">
              <mxPoint x="150" y="-340" />
              <mxPoint x="210" y="-360" />
            </Array>
          </mxGeometry>
        </mxCell>
        <mxCell id="V_KaOfOmdFqGTKFBVD7W-173" value="消费信息检查订单状态" style="ellipse;whiteSpace=wrap;html=1;aspect=fixed;" vertex="1" parent="1">
          <mxGeometry x="-360" y="-840" width="130" height="130" as="geometry" />
        </mxCell>
        <mxCell id="V_KaOfOmdFqGTKFBVD7W-174" value="&lt;font style=&quot;font-size: 37px;&quot;&gt;订单查询&lt;/font&gt;" style="rounded=0;whiteSpace=wrap;html=1;dashed=1;" vertex="1" parent="1">
          <mxGeometry x="400" y="-730" width="180" height="90" as="geometry" />
        </mxCell>
        <mxCell id="V_KaOfOmdFqGTKFBVD7W-175" value="" style="curved=1;endArrow=classic;html=1;rounded=0;entryX=0;entryY=0.5;entryDx=0;entryDy=0;exitX=1;exitY=0.5;exitDx=0;exitDy=0;" edge="1" parent="1" source="V_KaOfOmdFqGTKFBVD7W-118" target="V_KaOfOmdFqGTKFBVD7W-174">
          <mxGeometry width="50" height="50" relative="1" as="geometry">
            <mxPoint x="210" y="-850" as="sourcePoint" />
            <mxPoint x="260" y="-900" as="targetPoint" />
            <Array as="points">
              <mxPoint x="260" y="-850" />
              <mxPoint x="220" y="-730" />
            </Array>
          </mxGeometry>
        </mxCell>
        <mxCell id="V_KaOfOmdFqGTKFBVD7W-176" value="退款订单查询，更新退款状态" style="edgeLabel;html=1;align=center;verticalAlign=middle;resizable=0;points=[];" vertex="1" connectable="0" parent="V_KaOfOmdFqGTKFBVD7W-175">
          <mxGeometry x="-0.1997" y="9" relative="1" as="geometry">
            <mxPoint y="1" as="offset" />
          </mxGeometry>
        </mxCell>
        <mxCell id="V_KaOfOmdFqGTKFBVD7W-177" value="" style="curved=1;endArrow=classic;html=1;rounded=0;entryX=1;entryY=0.5;entryDx=0;entryDy=0;exitX=1;exitY=0.5;exitDx=0;exitDy=0;" edge="1" parent="1" source="V_KaOfOmdFqGTKFBVD7W-118" target="V_KaOfOmdFqGTKFBVD7W-83">
          <mxGeometry width="50" height="50" relative="1" as="geometry">
            <mxPoint x="210" y="-860" as="sourcePoint" />
            <mxPoint x="880" y="-700" as="targetPoint" />
            <Array as="points">
              <mxPoint x="750" y="-980" />
              <mxPoint x="970" y="-810" />
              <mxPoint x="980" y="-490" />
              <mxPoint x="920" y="-310" />
              <mxPoint x="820" y="-170" />
            </Array>
          </mxGeometry>
        </mxCell>
        <mxCell id="V_KaOfOmdFqGTKFBVD7W-180" value="？是否需要通知his" style="edgeLabel;html=1;align=center;verticalAlign=middle;resizable=0;points=[];" vertex="1" connectable="0" parent="V_KaOfOmdFqGTKFBVD7W-177">
          <mxGeometry x="0.2111" y="-7" relative="1" as="geometry">
            <mxPoint y="1" as="offset" />
          </mxGeometry>
        </mxCell>
        <mxCell id="V_KaOfOmdFqGTKFBVD7W-181" value="" style="rounded=1;whiteSpace=wrap;html=1;" vertex="1" parent="1">
          <mxGeometry x="-310" y="180" width="300" height="70" as="geometry" />
        </mxCell>
        <mxCell id="V_KaOfOmdFqGTKFBVD7W-182" value="退款流水记录" style="text;strokeColor=none;fillColor=none;html=1;fontSize=24;fontStyle=1;verticalAlign=middle;align=center;" vertex="1" parent="1">
          <mxGeometry x="-215" y="180" width="100" height="40" as="geometry" />
        </mxCell>
        <mxCell id="V_KaOfOmdFqGTKFBVD7W-183" value="" style="curved=1;endArrow=classic;html=1;rounded=0;exitX=1;exitY=0.5;exitDx=0;exitDy=0;entryX=0;entryY=0.25;entryDx=0;entryDy=0;" edge="1" parent="1" source="V_KaOfOmdFqGTKFBVD7W-165" target="V_KaOfOmdFqGTKFBVD7W-181">
          <mxGeometry width="50" height="50" relative="1" as="geometry">
            <mxPoint x="-450" y="130" as="sourcePoint" />
            <mxPoint x="-400" y="80" as="targetPoint" />
            <Array as="points">
              <mxPoint x="-400" y="130" />
            </Array>
          </mxGeometry>
        </mxCell>
        <mxCell id="V_KaOfOmdFqGTKFBVD7W-185" value="新增退款记录" style="edgeLabel;html=1;align=center;verticalAlign=middle;resizable=0;points=[];" vertex="1" connectable="0" parent="V_KaOfOmdFqGTKFBVD7W-183">
          <mxGeometry x="0.1165" y="-7" relative="1" as="geometry">
            <mxPoint x="-1" as="offset" />
          </mxGeometry>
        </mxCell>
        <mxCell id="V_KaOfOmdFqGTKFBVD7W-188" value="" style="curved=1;endArrow=classic;html=1;rounded=0;entryX=1;entryY=0.5;entryDx=0;entryDy=0;exitX=1;exitY=0.5;exitDx=0;exitDy=0;" edge="1" parent="1" source="V_KaOfOmdFqGTKFBVD7W-118" target="V_KaOfOmdFqGTKFBVD7W-181">
          <mxGeometry width="50" height="50" relative="1" as="geometry">
            <mxPoint x="200" y="-860" as="sourcePoint" />
            <mxPoint x="1410" y="-290" as="targetPoint" />
            <Array as="points">
              <mxPoint x="1160" y="-1070" />
              <mxPoint x="1140" y="-250" />
              <mxPoint x="740" y="250" />
            </Array>
          </mxGeometry>
        </mxCell>
        <mxCell id="V_KaOfOmdFqGTKFBVD7W-189" value="更新退款流水信息" style="edgeLabel;html=1;align=center;verticalAlign=middle;resizable=0;points=[];" vertex="1" connectable="0" parent="V_KaOfOmdFqGTKFBVD7W-188">
          <mxGeometry x="0.3485" y="-88" relative="1" as="geometry">
            <mxPoint x="-1" as="offset" />
          </mxGeometry>
        </mxCell>
      </root>
    </mxGraphModel>
  </diagram>
</mxfile>
